# AST/ASF file generated using VICON BodyLanguage
# -----------------------------------------------
:version 1.10
:name VICON
:units
  mass 1.0
  length 0.45
  angle deg
:documentation
   .ast/.asf automatically generated from VICON data using
   VICON BodyBuilder and BodyLanguage model FoxedUp or BRILLIANT.MOD
:root
   order TX TY TZ RX RY RZ
   axis XYZ
   position 0 0 0  
   orientation 0 0 0 
:bonedata
  begin
     id 1 
     name lhipjoint
     direction 0.62366 -0.717238 0.310833 
     length 2.53602 
     axis 0 0 0  XYZ
  end
  begin
     id 2 
     name lfemur
     direction 0.34202 -0.939693 0  
     length 7.40817  
     axis 0 0 20  XYZ
    dof rx ry rz
    limits (-160.0 20.0)
           (-70.0 70.0)
           (-60.0 70.0)
  end
  begin
     id 3 
     name ltibia
     direction 0.34202 -0.939693 0   
     length 7.7045   
     axis 0 0 20   XYZ
    dof rx
    limits (-10.0 170.0)
  end
  begin
     id 4 
     name lfoot
     direction 0.0673888 -0.185149 0.980397   
     length 2.09456   
     axis -90 7.62852e-016 20   XYZ
    dof rx rz
    limits (-45.0 90.0)
           (-70.0 20.0)
  end
  begin
     id 5 
     name ltoes
     direction 1.53575e-011 -4.21994e-011 1   
     length 1.05543   
     axis -90 7.62852e-016 20   XYZ
    dof rx
    limits (-90.0 20.0)
  end
  begin
     id 6 
     name rhipjoint
     direction -0.489018 -0.800347 0.346851   
     length 2.27268  
     axis 0 0 0  XYZ 
  end
  begin
     id 7 
     name rfemur
     direction -0.34202 -0.939693 0   
     length 7.55487   
     axis 0 0 -20   XYZ
    dof rx ry rz
    limits (-160.0 20.0)
           (-70.0 70.0)
           (-70.0 60.0)
  end
  begin
     id 8 
     name rtibia
     direction -0.34202 -0.939693 0   
     length 7.78969   
     axis 0 0 -20   XYZ
    dof rx
    limits (-10.0 170.0)
 end
 begin
     id 9 
     name rfoot
     direction -0.0859318 -0.236096 0.967923   
     length 2.19143  
     axis -90 -7.62852e-016 -20   XYZ
    dof rx rz
    limits (-45.0 90.0)
           (-20.0 70.0)
  end
  begin
     id 10 
     name rtoes
     direction -1.53538e-011 -4.21989e-011 1   
     length 1.09845   
     axis -90 -7.62852e-016 -20   XYZ
    dof rx
    limits (-90.0 20.0)
  end
  begin
     id 11 
     name lowerback
     direction -0.00762546 0.998978 -0.0445553   
     length 1.98161   
     axis 0 0 0   XYZ
    dof rx ry rz
    limits (-20.0 45.0)
           (-30.0 30.0)
           (-30.0 30.0)
  end
  begin
     id 12 
     name upperback
     direction 0.0422361 0.998867 -0.0219156   
     length 1.97558   
     axis 0 0 0   XYZ
    dof rx ry rz
    limits (-20.0 45.0)
           (-30.0 30.0)
           (-30.0 30.0)
  end
  begin
     id 13 
     name thorax
     direction 0.0442465 0.999021 7.47603e-005   
     length 1.97799   
     axis 0 0 0   XYZ
    dof rx ry rz
    limits (-20.0 45.0)
           (-30.0 30.0)
           (-30.0 30.0)
  end
  begin
     id 14 
     name lowerneck
     direction 0.00312169 0.984641 0.174564   
     length 1.78995   
     axis 0 0 0   XYZ
    dof rx ry rz
    limits (-20.0 45.0)
           (-30.0 30.0)
           (-30.0 30.0)
  end
  begin
     id 15 
     name upperneck
     direction -0.0383028 0.985255 -0.166749   
     length 1.83053   
     axis 0 0 0   XYZ
    dof rx ry rz
    limits (-20.0 45.0)
           (-30.0 30.0)
           (-30.0 30.0)
  end
  begin
     id 16
     name head
     direction -0.0129546 0.997059 -0.0755386  
     length 1.84088  
     axis 0 0 0   XYZ
    dof rx ry rz
    limits (-20.0 45.0)
           (-30.0 30.0)
           (-30.0 30.0)
  end
  begin
     id 17 
     name lclavicle
     direction 0.912857 0.370519 -0.171488  
     length 3.51279  
     axis 0 0 0   XYZ
    dof ry rz
    limits (-20.0 10.0)
           (0.0 20.0)
  end
  begin
     id 18 
     name lhumerus
     direction 1 -4.48962e-011 3.64361e-027   
     length 4.95663   
     axis 180 -30 -90   XYZ
    dof rx ry rz
    limits (-60.0 90.0)
           (-90.0 90.0)
           (-90.0 90.0)
  end
  begin
     id 19
     name lradius
     direction 1 -4.48974e-011 5.97202e-027   
     length 3.38177   
     axis 180 -30 -90   XYZ
    dof rx
    limits (-10.0 170.0)
  end
  begin
     id 20
     name lwrist
     direction 1 -4.4896e-011 9.83288e-027   
     length 1.69088   
     axis -9.31221e-015 90 90   XYZ
    dof ry
    limits (-180.0 0.0)
 end
  begin
     id 21 
     name lhand
     direction 1 -4.4902e-011 1.96551e-026   
     length 0.662909   
     axis -1.25475e-014 90 90   XYZ
    dof rx rz
    limits (-90.0 90.0)
           (-45.0 45.0)
  end
  begin
     id 22 
     name lfingers
     direction 1 -4.48971e-011 3.93277e-026   
     length 0.534454   
     axis -2.50945e-014 90 90   XYZ
    dof rx
    limits (0.0 90.0)
  end
  begin
     id 23
     name lthumb
     direction 0.707107 -6.34933e-011 0.707107   
     length 0.767373   
     axis -90 45 -4.80359e-014   XYZ
    dof rx rz
    limits (-45.0 45.0)
           (-45.0 45.0)
  end
  begin
     id 24 
     name rclavicle
     direction -0.900919 0.395364 -0.178976   
     length 3.40627  
     axis 0 0 0   XYZ 
    dof ry rz
    limits (-10.0 20.0)
           (-20.0 0.0)
  end
  begin
     id 25 
     name rhumerus
     direction -1 -4.48969e-011 1.03875e-027  
     length 5.08365   
     axis 180 30 90   XYZ
    dof rx ry rz
    limits (-90.0 60.0)
           (-90.0 90.0)
           (-90.0 90.0)
  end
  begin
     id 26 
     name rradius
     direction -1 -4.48951e-011 5.02733e-027   
     length 3.35984   
     axis 180 30 90   XYZ
    dof rx
    limits (-10.0 170.0)
  end
  begin
     id 27 
     name rwrist
     direction -1 -4.49011e-011 9.82828e-027   
     length 1.67992   
     axis -9.31221e-015 -90 -90   XYZ
    dof ry
    limits (-180.0 0.0)
  end
  begin
     id 28
     name rhand
     direction -1 -4.48894e-011 1.96774e-026   
     length 0.820764   
     axis -1.25475e-014 -90 -90   XYZ
    dof rx rz
    limits (-90.0 90.0)
           (-45.0 45.0)
  end
  begin
     id 29
     name rfingers
     direction -1 -4.49095e-011 3.92833e-026   
     length 0.661721   
     axis -2.50945e-014 -90 -90   XYZ
    dof rx
    limits (0.0 90.0)
  end
  begin
     id 30
     name rthumb
     direction -0.707107 -6.34881e-011 0.707107   
     length 0.950103   
     axis -90 -45 4.80359e-014   XYZ
    dof rx rz
    limits (-45.0 45.0)
           (-45.0 45.0)
  end
:hierarchy
  begin
    root lhipjoint rhipjoint lowerback
    lhipjoint lfemur
    lfemur ltibia
    ltibia lfoot
    lfoot ltoes
    rhipjoint rfemur
    rfemur rtibia
    rtibia rfoot
    rfoot rtoes
    lowerback upperback
    upperback thorax
    thorax lowerneck lclavicle rclavicle
    lowerneck upperneck
    upperneck head
    lclavicle lhumerus
    lhumerus lradius
    lradius lwrist
    lwrist lhand lthumb
    lhand lfingers
    rclavicle rhumerus
    rhumerus rradius
    rradius rwrist
    rwrist rhand rthumb
    rhand rfingers
  end

#!OML:ASF I:\golf\golf\golf 2\Subject 1\2002-09-07\Subject1.ASF
:FULLY-SPECIFIED
:DEGREES
91
root -5.99387 17.8635 0.274458 -82.1875 85.2937 -99.6896
lowerback -0.31305 2.10526 -1.30484
upperback 3.76168 2.81665 3.70033
thorax 3.80827 1.33555 4.66415
lowerneck -15.3012 -1.98142 1.32236
upperneck 39.3863 -0.04713 -3.61985
head 16.8303 0.237006 -1.69611
rclavicle 3.97569e-016 6.36111e-015
rhumerus -7.18662 -4.3787 -101.903
rradius 20.7336
rwrist -38.0025
rhand -13.402 -8.63663
rfingers 7.12502
rthumb 12.7057 -38.2301
lclavicle 3.97569e-016 6.36111e-015
lhumerus -8.46965 -39.999 108.419
lradius 21.8665
lwrist 41.7524
lhand 0.899618 71.9682
lfingers 7.12502
lthumb -153.548 79.8577
rfemur -28.512 -0.450263 12.3295
rtibia 23.4562
rfoot -8.69749 -9.0843
rtoes 22.926
lfemur -29.5737 9.67368 -7.31286
ltibia 27.2841
lfoot -9.99137 -0.758548
ltoes -20.966
92
root -5.99404 17.8633 0.274477 -82.6439 85.2784 -100.178
lowerback -0.308594 2.09929 -1.29385
upperback 3.74456 2.80844 3.70647
thorax 3.78884 1.33224 4.66326
lowerneck -15.2889 -1.97121 1.3721
upperneck 39.4242 -0.032758 -3.63961
head 16.8479 0.249703 -1.71171
rclavicle -4.45278e-014 -2.78299e-014
rhumerus -7.16164 -4.51937 -101.868
rradius 20.7033
rwrist -38.0676
rhand -13.1405 -8.71565
rfingers 7.12502
rthumb 12.9577 -38.2933
lclavicle -4.45278e-014 -2.78299e-014
lhumerus -8.54269 -40.1265 108.457
lradius 21.8042
lwrist 41.3298
lhand 1.26 71.3148
lfingers 7.12502
lthumb -153.203 80.5635
rfemur -28.5496 -0.475322 12.3464
rtibia 23.4765
rfoot -7.06726 -9.41526
rtoes -5.63053
lfemur -29.6098 9.67757 -7.31072
ltibia 27.2463
lfoot -9.97191 -0.760192
ltoes -21.2006
93
root -5.99339 17.8644 0.275063 -83.069 85.2195 -100.607
lowerback -0.268534 2.11095 -1.20387
upperback 3.72961 2.82269 3.69094
thorax 3.75399 1.34334 4.59404
lowerneck -15.215 -1.97057 1.43584
upperneck 39.3662 -0.0578272 -3.63929
head 16.7957 0.248417 -1.72526
rclavicle -3.598e-014 -4.45278e-014
rhumerus -7.10049 -4.93536 -101.885
rradius 20.5912
rwrist -37.8087
rhand -12.7797 -8.7635
rfingers 7.12502
rthumb 13.3056 -38.3187
lclavicle -3.598e-014 -4.45278e-014
lhumerus -8.71005 -40.5862 108.447
lradius 21.9415
lwrist 41.3774
lhand 1.40491 70.8269
lfingers 7.12502
lthumb -153.065 81.0727
rfemur -28.5396 -0.449042 12.4022
rtibia 23.4751
rfoot -6.76699 -9.46247
rtoes -9.47106
lfemur -29.6197 9.6662 -7.24466
ltibia 27.2318
lfoot -9.96629 -0.759461
ltoes -21.2942
94
root -5.99066 17.8659 0.275728 -83.4025 85.2125 -100.93
lowerback -0.224234 2.12005 -1.1637
upperback 3.7209 2.83468 3.655
thorax 3.72221 1.35162 4.53159
lowerneck -15.1561 -1.95925 1.49778
upperneck 39.294 -0.0677676 -3.64224
head 16.7405 0.251569 -1.73723
rclavicle 9.34288e-015 2.22639e-014
rhumerus -7.13093 -4.90929 -101.897
rradius 20.6293
rwrist -38.0084
rhand -12.5224 -8.83481
rfingers 7.12502
rthumb 13.5535 -38.3737
lclavicle 9.34288e-015 2.22639e-014
lhumerus -8.92663 -41.0371 108.473
lradius 22.1992
lwrist 41.6747
lhand 1.32542 70.649
lfingers 7.12502
lthumb -153.141 81.2389
rfemur -28.5008 -0.451208 12.4092
rtibia 23.4649
rfoot -6.7874 -9.51668
rtoes -7.5586
lfemur -29.5977 9.65744 -7.23986
ltibia 27.2265
lfoot -9.96531 -0.774857
ltoes -21.5057
95
root -5.98879 17.8662 0.27448 -84.2457 85.1861 -101.813
lowerback -0.244792 2.09798 -1.14734
upperback 3.71211 2.80458 3.67775
thorax 3.72699 1.33691 4.54601
lowerneck -15.1683 -1.91694 1.52201
upperneck 39.2842 -0.00537218 -3.66022
head 16.7409 0.277853 -1.73838
rclavicle 7.7526e-015 -4.05521e-014
rhumerus -7.16275 -4.63406 -101.837
rradius 20.7015
rwrist -38.413
rhand -12.3164 -8.91085
rfingers 7.12502
rthumb 13.7521 -38.4364
lclavicle 7.7526e-015 -4.05521e-014
lhumerus -9.03405 -41.04 108.581
lradius 22.261
lwrist 41.4222
lhand 1.41037 70.2946
lfingers 7.12502
lthumb -153.059 81.6058
rfemur -28.5143 -0.535354 12.4454
rtibia 23.4575
rfoot -6.80796 -9.50515
rtoes -7.0856
lfemur -29.6501 9.61723 -7.22065
ltibia 27.2158
lfoot -9.96612 -0.814119
ltoes -21.3086
96
root -5.98891 17.8659 0.272795 -84.8005 85.1695 -102.411
lowerback -0.267144 2.08854 -1.14491
upperback 3.71105 2.79158 3.71063
thorax 3.7383 1.33008 4.57973
lowerneck -15.2154 -1.90394 1.51382
upperneck 39.3039 0.0340122 -3.69741
head 16.7655 0.287859 -1.74746
rclavicle 4.51241e-014 2.70347e-014
rhumerus -7.07591 -4.85781 -101.763
rradius 20.5749
rwrist -38.303
rhand -11.8713 -8.86427
rfingers 7.12502
rthumb 14.181 -38.3602
lclavicle 4.51241e-014 2.70347e-014
lhumerus -9.13594 -41.1437 108.73
lradius 22.3491
lwrist 41.2468
lhand 1.40172 69.9745
lfingers 7.12502
lthumb -153.068 81.9246
rfemur -28.5462 -0.592022 12.463
rtibia 23.4529
rfoot -6.85317 -9.48566
rtoes -5.94633
lfemur -29.7079 9.58852 -7.21247
ltibia 27.2037
lfoot -9.9332 -0.83855
ltoes -20.7865
97
root -5.98806 17.8656 0.273318 -84.64 85.1765 -102.261
lowerback -0.292096 2.09864 -1.15896
upperback 3.73276 2.80511 3.72183
thorax 3.77276 1.33555 4.6018
lowerneck -15.2917 -1.9282 1.50023
upperneck 39.365 0.0433397 -3.78299
head 16.8186 0.279158 -1.78391
rclavicle -3.57812e-015 -7.95139e-016
rhumerus -6.93177 -5.35589 -101.738
rradius 20.3538
rwrist -37.8689
rhand -11.3869 -8.77563
rfingers 7.12502
rthumb 14.6478 -38.2383
lclavicle -3.57812e-015 -7.95139e-016
lhumerus -9.26034 -41.6067 108.875
lradius 22.543
lwrist 41.5163
lhand 0.897012 69.9047
lfingers 7.12502
lthumb -153.551 81.9208
rfemur -28.5472 -0.585883 12.46
rtibia 23.43
rfoot -6.80314 -9.48736
rtoes -6.23363
lfemur -29.7153 9.62054 -7.22473
ltibia 27.2067
lfoot -9.91615 -0.870584
ltoes -20.4689
98
root -5.98791 17.8654 0.274452 -84.456 85.1553 -102.109
lowerback -0.307795 2.103 -1.19758
upperback 3.73237 2.81142 3.76552
thorax 3.77703 1.33703 4.67028
lowerneck -15.3792 -1.95375 1.47957
upperneck 39.4883 0.0514798 -3.8424
head 16.9087 0.274804 -1.8091
rclavicle -2.98177e-014 -2.46493e-014
rhumerus -6.92685 -5.32242 -101.691
rradius 20.3674
rwrist -37.9957
rhand -10.9543 -8.7542
rfingers 7.12502
rthumb 15.0645 -38.1861
lclavicle -2.98177e-014 -2.46493e-014
lhumerus -9.41136 -42.1394 109.053
lradius 22.7333
lwrist 41.7704
lhand 0.180562 69.8077
lfingers 7.12502
lthumb -154.237 81.9165
rfemur -28.5685 -0.580642 12.4965
rtibia 23.3939
rfoot -6.71565 -9.50677
rtoes -7.03897
lfemur -29.7572 9.64014 -7.19219
ltibia 27.2271
lfoot -9.91459 -0.923596
ltoes -20.1288
